<?xml version="1.0" standalone="no"?>
<!DOCTYPE svg PUBLIC "-//W3C//DTD SVG 20010904//EN"
 "http://www.w3.org/TR/2001/REC-SVG-20010904/DTD/svg10.dtd">
<svg version="1.0" xmlns="http://www.w3.org/2000/svg"
 width="800.000000pt" height="323.000000pt" viewBox="0 0 800.000000 323.000000"
 preserveAspectRatio="xMidYMid meet">
<metadata>
Created by potrace 1.11, written by Peter Selinger 2001-2013
</metadata>
<g transform="translate(0.000000,323.000000) scale(0.100000,-0.100000)"
fill="#000000" stroke="none">
<path d="M4870 3145 c-52 -7 -113 -17 -135 -23 -129 -36 -231 -60 -362 -86
-40 -7 -80 -19 -89 -27 -16 -13 -286 -108 -454 -159 -52 -16 -127 -42 -167
-58 -76 -33 -285 -102 -305 -102 -6 0 -19 -7 -29 -16 -10 -9 -57 -29 -105 -45
-48 -16 -92 -33 -98 -38 -6 -5 -54 -25 -106 -46 -87 -33 -284 -133 -450 -227
-36 -20 -99 -55 -140 -76 -41 -21 -90 -47 -109 -57 -34 -18 -35 -18 -51 3 -11
13 -19 49 -24 104 -4 46 -11 124 -16 173 -10 87 -13 342 -5 355 2 4 7 35 10
70 9 99 33 114 84 53 17 -20 33 -34 37 -30 13 12 -7 53 -50 102 -41 46 -46 49
-73 39 -21 -7 -29 -17 -30 -39 -4 -56 -24 -180 -35 -214 -11 -36 2 -281 22
-407 6 -34 10 -87 10 -118 0 -31 7 -73 15 -93 14 -33 14 -38 -1 -54 -9 -10
-33 -24 -53 -30 -20 -6 -61 -24 -91 -39 -30 -15 -74 -33 -97 -40 -24 -8 -56
-28 -73 -47 -17 -18 -38 -33 -46 -33 -9 0 -53 -22 -98 -48 -164 -98 -243 -141
-326 -178 -47 -21 -99 -48 -117 -61 -17 -13 -34 -23 -38 -23 -3 0 -24 -12 -47
-27 -22 -16 -59 -40 -82 -56 -22 -15 -54 -35 -70 -45 -16 -9 -48 -31 -72 -49
-23 -17 -57 -39 -76 -49 -18 -9 -60 -39 -93 -66 -33 -26 -65 -48 -70 -48 -6 0
-27 -16 -46 -36 -18 -19 -48 -41 -64 -48 -17 -7 -59 -39 -92 -70 -34 -32 -77
-65 -96 -74 -43 -21 -270 -266 -322 -347 -82 -128 -101 -197 -69 -244 21 -30
141 -87 213 -101 31 -7 76 -16 101 -22 25 -6 92 -15 150 -21 141 -13 778 -18
860 -6 90 12 171 12 430 0 124 -6 235 -10 248 -10 82 2 217 0 495 -6 314 -7
429 0 464 27 7 5 21 7 32 3 29 -9 76 19 90 53 11 26 9 34 -21 83 -18 30 -42
60 -53 68 -39 28 -171 167 -218 231 -119 162 -171 227 -195 248 -18 16 -23 25
-14 28 18 8 15 23 -13 56 -14 16 -25 35 -25 42 0 7 -10 24 -23 37 -13 13 -32
47 -42 74 -10 28 -25 60 -32 72 -19 28 -5 54 44 85 45 27 86 43 293 114 l155
54 126 0 c172 0 218 -10 304 -68 60 -39 74 -54 84 -87 17 -59 33 -144 34 -192
2 -37 7 -46 49 -78 41 -32 58 -39 137 -49 97 -14 133 -31 155 -75 9 -16 39
-46 68 -67 49 -37 57 -39 136 -43 56 -2 108 3 160 15 82 19 112 35 194 99 28
22 59 46 69 54 33 24 46 7 54 -71 9 -89 33 -152 91 -240 46 -68 166 -188 190
-188 18 0 30 23 14 28 -16 6 -124 102 -129 116 -2 6 -22 39 -43 74 -50 82 -77
161 -85 248 -7 85 13 156 63 219 17 22 37 51 44 65 7 14 22 36 32 50 25 32 68
100 68 105 0 7 -46 6 -65 -1 -9 -4 -25 -23 -36 -43 -11 -20 -28 -49 -39 -66
-11 -16 -36 -62 -55 -101 -34 -70 -115 -164 -142 -164 -7 0 -30 -16 -52 -35
-21 -19 -44 -35 -51 -35 -7 0 -35 -14 -62 -31 -93 -56 -240 -64 -311 -16 -20
13 -48 38 -61 54 -14 17 -49 46 -78 66 -45 30 -64 36 -128 41 -100 8 -123 25
-131 97 -9 80 -50 205 -80 243 -30 39 -148 111 -212 131 -48 15 -79 17 -175
12 -115 -6 -167 -16 -287 -56 -140 -47 -192 -69 -274 -118 -32 -19 -69 -33
-87 -33 -29 0 -34 4 -47 43 -34 93 -87 267 -87 282 0 8 -4 23 -9 33 -14 28
-41 148 -41 185 0 19 -7 40 -15 47 -8 7 -15 23 -15 35 0 25 35 75 54 75 6 0
44 16 85 35 40 19 78 35 85 35 7 0 23 11 36 25 13 14 30 23 38 20 8 -3 27 6
44 20 16 14 34 25 39 25 6 0 29 13 52 28 69 47 503 252 532 252 9 0 131 48
185 72 25 12 59 25 75 29 42 11 205 66 295 99 108 40 424 144 570 188 30 9 61
20 67 25 7 5 19 7 27 4 7 -3 26 2 42 10 46 24 150 51 279 72 28 5 100 18 160
31 82 16 134 21 203 18 50 -2 92 -1 92 2 0 3 -5 11 -12 18 -16 16 -239 14
-368 -3z m-2637 -1087 c16 -13 30 -60 46 -163 5 -27 17 -75 26 -105 10 -30 19
-62 19 -70 1 -8 11 -34 24 -58 18 -34 21 -47 11 -58 -8 -10 -8 -18 -1 -26 5
-7 22 -42 37 -78 15 -36 34 -72 42 -82 13 -15 10 -19 -34 -44 -26 -16 -67 -42
-90 -59 -23 -16 -63 -43 -90 -59 -80 -49 -204 -131 -274 -183 -143 -104 -219
-164 -219 -173 0 -5 -8 -11 -19 -15 -10 -3 -92 -76 -182 -161 -168 -160 -195
-199 -139 -199 18 0 29 9 40 30 21 41 229 241 317 304 39 28 87 66 106 84 19
17 60 50 91 72 31 22 83 59 114 82 31 23 80 54 107 68 28 15 75 44 105 64 70
47 165 101 177 101 6 0 26 -36 46 -80 22 -48 55 -100 83 -130 32 -34 41 -50
30 -50 -20 0 -21 -14 -1 -30 8 -7 19 -27 23 -44 4 -17 17 -35 28 -40 11 -5 26
-22 33 -37 7 -16 32 -52 55 -81 23 -29 54 -73 68 -98 14 -25 61 -78 105 -118
189 -177 202 -194 183 -217 -27 -33 -109 -40 -455 -40 -187 0 -357 3 -378 6
-20 4 -56 3 -78 -2 -26 -6 -61 -6 -95 0 -32 6 -290 10 -631 10 -681 0 -578 -2
-798 10 -99 5 -205 14 -235 21 -30 6 -87 15 -127 20 -74 9 -147 35 -175 64
-19 19 -16 65 8 103 8 12 14 28 14 35 0 31 270 328 297 328 7 0 13 7 13 15 0
8 15 22 33 31 17 9 46 31 63 48 52 53 138 122 174 141 19 10 89 60 155 112 66
51 154 111 195 133 42 21 84 48 94 59 11 12 25 21 32 21 6 0 35 16 64 35 29
19 54 35 56 35 2 0 34 19 71 43 37 24 94 54 125 66 32 13 79 37 105 54 26 16
89 50 139 74 51 24 97 50 104 58 6 7 28 19 48 26 20 7 60 28 87 48 28 20 75
47 105 61 30 13 64 30 75 37 24 16 27 16 48 1z"/>
<path d="M6628 1368 c-25 -46 -51 -100 -57 -120 -7 -21 -16 -40 -21 -43 -5 -3
-14 -22 -21 -43 -12 -35 -117 -171 -168 -216 -13 -11 -45 -41 -71 -66 -70 -68
-120 -105 -174 -128 -82 -37 -96 -26 -51 40 26 39 31 58 16 58 -24 0 -43 -16
-61 -49 -10 -21 -26 -43 -34 -50 -40 -34 6 -88 66 -78 91 15 130 34 201 98 40
36 84 74 100 83 15 10 27 24 27 31 0 8 33 48 73 91 l74 78 41 -56 c40 -54 87
-88 122 -88 10 0 23 -7 30 -15 10 -12 8 -21 -9 -48 -22 -36 -27 -67 -12 -67 5
0 16 -3 24 -6 9 -3 33 14 62 45 26 27 68 60 94 71 25 12 54 29 63 37 22 20 56
26 135 27 83 0 100 -16 56 -53 -63 -53 -29 -102 38 -55 45 31 67 27 122 -23
30 -27 41 -31 56 -23 34 18 44 87 14 96 -10 3 -36 14 -58 25 -22 10 -53 19
-69 19 -19 0 -42 12 -67 35 -35 31 -45 35 -97 35 -44 0 -72 -7 -122 -32 -58
-29 -74 -32 -155 -33 -119 0 -165 22 -201 98 -31 68 -31 69 8 137 4 8 11 22
14 30 4 8 28 60 54 114 48 101 52 126 21 126 -11 0 -33 -29 -63 -82z"/>
<path d="M5254 1001 c-70 -32 -156 -145 -140 -186 3 -9 22 -23 42 -31 44 -18
75 -10 180 47 90 49 104 50 104 5 0 -38 14 -53 50 -57 47 -4 67 1 104 26 48
32 61 32 95 -5 35 -39 136 -81 165 -70 37 13 31 37 -11 45 -76 14 -147 74
-136 115 5 17 1 20 -32 20 -29 0 -47 -8 -76 -35 -27 -24 -49 -35 -69 -35 -35
0 -49 23 -32 51 7 10 9 25 6 33 -12 32 -43 27 -151 -29 -124 -64 -169 -76
-179 -50 -9 22 57 85 115 111 44 19 52 37 23 53 -13 7 -30 4 -58 -8z"/>
</g>
</svg>
